<svg xmlns="http://www.w3.org/2000/svg" viewBox="0 0 21 22">
  <title></title><desc></desc>
  <path class="icon-codepen" fill-rule="evenodd" d="M18.917 12.633l-2.214-1.477 2.214-1.475v2.952zm-7.646 6.257v-4.114l3.838-2.557 3.099 2.064-6.937 4.607zm-.885-5.646l-3.131-2.088 3.131-2.086 3.132 2.086-3.132 2.088zm-.885 5.646l-6.938-4.607 3.1-2.064L9.5 14.776v4.114zM1.854 9.681l2.215 1.475-2.215 1.477V9.681zm7.647-6.258v4.114l-3.839 2.56L2.563 8.03l6.938-4.607zm1.77 0l6.937 4.607-3.099 2.067-3.838-2.56V3.423zm9.409 4.492l-.007-.04a.746.746 0 0 0-.03-.116c-.006-.022-.014-.042-.022-.063l-.02-.044c-.01-.02-.019-.039-.03-.058-.008-.014-.016-.029-.025-.042a.78.78 0 0 0-.038-.053l-.03-.039-.044-.046c-.011-.012-.023-.025-.035-.035l-.05-.043-.04-.03c-.006-.003-.011-.007-.015-.011L10.877 1.04a.89.89 0 0 0-.982 0L.48 7.295l-.016.011-.039.03a.874.874 0 0 0-.05.043c-.013.01-.025.023-.037.035l-.043.046-.03.04a.78.78 0 0 0-.039.052l-.024.042-.031.058-.019.044a.528.528 0 0 0-.023.063.549.549 0 0 0-.014.043l-.015.074-.007.039a.844.844 0 0 0-.008.115v6.254c0 .04.002.078.008.116l.007.038c.004.025.01.05.015.074l.014.043c.007.02.014.043.023.065l.019.042.03.058c.01.015.018.028.025.042l.038.053a.797.797 0 0 0 .074.085c.012.012.024.025.037.035a.874.874 0 0 0 .05.043c.012.009.025.02.04.03.004.002.01.008.015.01l9.416 6.256a.888.888 0 0 0 .982 0l9.417-6.256.014-.01.04-.03.051-.043c.012-.01.024-.023.035-.035.016-.014.029-.03.044-.048a.421.421 0 0 0 .03-.037l.038-.053a.694.694 0 0 0 .025-.042c.011-.019.02-.038.03-.058l.02-.042c.008-.022.016-.044.022-.065a.55.55 0 0 0 .03-.117l.007-.038a.844.844 0 0 0 .008-.116V8.03a.844.844 0 0 0-.008-.115z"/>
</svg>