<svg id="Layer_1" xmlns="http://www.w3.org/2000/svg" viewBox="0 0 386.4 59">
	<title></title><desc></desc>
	<path class="st0" d="M0 1.6h7.7c3.5 0 6 .5 7.6 1.5 1.6 1 2.4 2.6 2.4 4.7 0 1.5-.3 2.7-1 3.6S15 13 13.9 13.2v.2c1.6.3 2.7 1 3.4 2 .7 1 1 2.2 1 3.8 0 2.2-.8 4-2.4 5.3-1.6 1.3-3.8 1.9-6.6 1.9H0V1.6zm5.2 9.7h3c1.4 0 2.4-.2 3.1-.7s1-1.2 1-2.2c0-.9-.3-1.6-1-2-.7-.3-1.8-.5-3.3-.5H5.2v5.4zm0 4.2v6.4h3.4c1.4 0 2.5-.3 3.2-.8.7-.6 1-1.4 1-2.5 0-2-1.5-3.1-4.4-3.1H5.2zM34.8 26.2l-1-2.6h-.1c-.9 1.1-1.8 1.8-2.7 2.3-.9.4-2.1.6-3.6.6-1.8 0-3.2-.5-4.3-1.6-1-1-1.6-2.5-1.6-4.4 0-2 .7-3.5 2.1-4.4 1.4-.9 3.5-1.5 6.3-1.6l3.3-.1v-.8c0-1.9-1-2.9-2.9-2.9-1.5 0-3.3.5-5.3 1.4l-1.7-3.5c2.2-1 4.6-1.6 7.2-1.6 2.5 0 4.5.6 5.8 1.7 1.3 1.1 2 2.8 2 5v12.6h-3.5zm-1.5-8.7l-2 .1c-1.5 0-2.6.3-3.3.8s-1.1 1.2-1.1 2.3c0 1.5.8 2.2 2.5 2.2 1.2 0 2.1-.3 2.9-1s1.1-1.6 1.1-2.7v-1.7zM56.8 20.6c0 1.9-.7 3.4-2 4.4-1.3 1-3.4 1.5-6 1.5-1.4 0-2.5-.1-3.5-.3s-1.9-.5-2.7-.8v-4.2c1 .4 2 .8 3.2 1.1s2.3.5 3.2.5c1.9 0 2.8-.5 2.8-1.6 0-.4-.1-.7-.4-1-.2-.3-.7-.5-1.3-.9-.6-.3-1.4-.7-2.4-1.1-1.5-.6-2.5-1.2-3.2-1.7-.7-.5-1.2-1.1-1.5-1.8-.3-.7-.5-1.5-.5-2.5 0-1.7.6-3 1.9-3.9C45.8 7.5 47.6 7 50 7c2.3 0 4.5.5 6.6 1.5L55 12.2c-.9-.4-1.8-.7-2.6-1-.8-.3-1.7-.4-2.5-.4-1.5 0-2.3.4-2.3 1.2 0 .5.2.9.7 1.2.5.3 1.6.8 3.2 1.5 1.5.6 2.6 1.2 3.2 1.7s1.2 1.1 1.5 1.8c.4.7.6 1.5.6 2.4zM60.6 2.5c0-1.7.9-2.5 2.8-2.5s2.8.8 2.8 2.5c0 .8-.2 1.4-.7 1.9-.5.4-1.2.6-2.1.6-1.9 0-2.8-.8-2.8-2.5zM66 26.2h-5.1V7.4H66v18.8zM79 26.6c-5.9 0-8.8-3.2-8.8-9.7 0-3.2.8-5.7 2.4-7.3C74.2 7.9 76.5 7 79.5 7c2.2 0 4.1.4 5.9 1.3l-1.5 4c-.8-.3-1.6-.6-2.3-.8s-1.4-.3-2.1-.3c-2.7 0-4 1.9-4 5.7 0 3.7 1.3 5.5 4 5.5 1 0 1.9-.1 2.7-.4s1.7-.7 2.5-1.2v4.4c-.8.5-1.7.9-2.5 1.1s-1.9.3-3.2.3zM122.5 26.2h-6l-3.3-13c-.1-.5-.3-1.4-.6-2.9-.3-1.4-.5-2.4-.5-2.9-.1.6-.2 1.6-.5 2.9s-.5 2.3-.6 2.9l-3.3 12.9h-5.9L95.4 1.6h5.1l3.2 13.5c.6 2.5 1 4.6 1.2 6.5.1-.6.2-1.6.5-3 .2-1.3.5-2.4.7-3.1l3.6-13.8h4.9l3.6 13.8c.2.6.4 1.6.6 2.8.2 1.3.4 2.4.5 3.3.1-.9.3-2 .5-3.3.2-1.3.5-2.4.7-3.2l3.1-13.5h5.1l-6.2 24.6zM148.6 16.8c0 3.1-.8 5.5-2.4 7.2-1.6 1.7-3.9 2.6-6.8 2.6-1.8 0-3.4-.4-4.8-1.2s-2.4-1.9-3.2-3.4c-.7-1.5-1.1-3.2-1.1-5.2 0-3.1.8-5.5 2.4-7.2 1.6-1.7 3.9-2.6 6.8-2.6 1.8 0 3.4.4 4.8 1.2 1.4.8 2.4 1.9 3.2 3.4.7 1.5 1.1 3.2 1.1 5.2zm-13 0c0 1.9.3 3.3.9 4.2.6 1 1.6 1.4 3 1.4s2.4-.5 3-1.4c.6-.9.9-2.4.9-4.2 0-1.9-.3-3.3-.9-4.2-.6-.9-1.6-1.4-3-1.4s-2.4.5-3 1.4c-.6.9-.9 2.3-.9 4.2zM163.4 7c.7 0 1.3.1 1.7.2l-.4 4.8c-.4-.1-.9-.2-1.5-.2-1.6 0-2.9.4-3.8 1.3-.9.8-1.4 2-1.4 3.5v9.6h-5.1V7.4h3.9l.8 3.2h.3c.6-1.1 1.4-1.9 2.4-2.6.8-.6 1.9-1 3.1-1zM174.5 26.6c-2.2 0-4-.9-5.2-2.6-1.3-1.7-1.9-4.1-1.9-7.1 0-3.1.6-5.5 1.9-7.2s3.1-2.6 5.3-2.6c2.4 0 4.2.9 5.4 2.8h.2c-.3-1.4-.4-2.7-.4-3.8V0h5.2v26.2h-3.9l-1-2.4h-.2c-1.2 1.8-3 2.8-5.4 2.8zm1.8-4.1c1.3 0 2.3-.4 2.9-1.1.6-.8.9-2.1 1-3.9v-.6c0-2-.3-3.5-.9-4.4s-1.6-1.3-3-1.3c-1.1 0-2 .5-2.7 1.5-.6 1-1 2.4-1 4.2s.3 3.2 1 4.2c.6.9 1.5 1.4 2.7 1.4zM200.8 26.6c-2.2 0-4-.8-5.2-2.4h-.3c.2 1.6.3 2.5.3 2.7v7.6h-5.1V7.4h4.2l.7 2.4h.2c1.2-1.9 3-2.8 5.3-2.8 2.2 0 4 .9 5.2 2.6 1.3 1.7 1.9 4.1 1.9 7.2 0 2-.3 3.8-.9 5.2s-1.4 2.6-2.5 3.4c-1.1.8-2.4 1.2-3.8 1.2zm-1.6-15.5c-1.3 0-2.2.4-2.8 1.2-.6.8-.9 2.1-.9 3.9v.6c0 2 .3 3.5.9 4.4s1.6 1.3 2.9 1.3c2.3 0 3.5-1.9 3.5-5.7 0-1.9-.3-3.2-.9-4.2-.6-1-1.5-1.5-2.7-1.5zM222.8 7c.7 0 1.3.1 1.7.2l-.4 4.8c-.4-.1-.9-.2-1.5-.2-1.6 0-2.9.4-3.8 1.3-.9.8-1.4 2-1.4 3.5v9.6h-5.1V7.4h3.9l.8 3.2h.3c.6-1.1 1.4-1.9 2.4-2.6.8-.6 1.9-1 3.1-1zM236.5 26.6c-3 0-5.4-.8-7.1-2.5-1.7-1.7-2.6-4-2.6-7.1 0-3.2.8-5.6 2.4-7.3s3.8-2.6 6.6-2.6c2.7 0 4.7.8 6.2 2.3s2.2 3.6 2.2 6.3v2.5H232c.1 1.5.5 2.6 1.3 3.4.8.8 1.9 1.2 3.4 1.2 1.1 0 2.2-.1 3.2-.4 1-.2 2.1-.6 3.2-1.1v4c-.9.5-1.9.8-2.9 1s-2.3.3-3.7.3zm-.8-15.9c-1.1 0-1.9.3-2.6 1s-1 1.7-1.1 2.9h7.2c0-1.3-.4-2.3-1-2.9-.5-.7-1.4-1-2.5-1zM261.5 20.6c0 1.9-.7 3.4-2 4.4-1.3 1-3.4 1.5-6 1.5-1.4 0-2.5-.1-3.5-.3s-1.9-.5-2.7-.8v-4.2c1 .4 2 .8 3.2 1.1s2.3.5 3.2.5c1.9 0 2.8-.5 2.8-1.6 0-.4-.1-.7-.4-1-.2-.3-.7-.5-1.3-.9-.6-.3-1.4-.7-2.4-1.1-1.5-.6-2.5-1.2-3.2-1.7-.7-.5-1.2-1.1-1.5-1.8-.3-.7-.5-1.5-.5-2.5 0-1.7.6-3 1.9-3.9 1.3-.9 3.1-1.4 5.5-1.4 2.3 0 4.5.5 6.6 1.5l-1.6 3.7c-.9-.4-1.8-.7-2.6-1-.8-.3-1.7-.4-2.5-.4-1.5 0-2.3.4-2.3 1.2 0 .5.2.9.7 1.2.5.3 1.6.8 3.2 1.5 1.5.6 2.6 1.2 3.2 1.7s1.2 1.1 1.5 1.8c.5.8.7 1.6.7 2.5zM278.7 20.6c0 1.9-.7 3.4-2 4.4-1.3 1-3.4 1.5-6 1.5-1.4 0-2.5-.1-3.5-.3s-1.9-.5-2.7-.8v-4.2c1 .4 2 .8 3.2 1.1s2.3.5 3.2.5c1.9 0 2.8-.5 2.8-1.6 0-.4-.1-.7-.4-1-.2-.3-.7-.5-1.3-.9-.6-.3-1.4-.7-2.4-1.1-1.5-.6-2.5-1.2-3.2-1.7-.7-.5-1.2-1.1-1.5-1.8-.3-.7-.5-1.5-.5-2.5 0-1.7.6-3 1.9-3.9 1.3-.9 3.1-1.4 5.5-1.4 2.3 0 4.5.5 6.6 1.5l-1.6 3.7c-.9-.4-1.8-.7-2.6-1-.8-.3-1.7-.4-2.5-.4-1.5 0-2.3.4-2.3 1.2 0 .5.2.9.7 1.2.5.3 1.6.8 3.2 1.5 1.5.6 2.6 1.2 3.2 1.7s1.2 1.1 1.5 1.8c.5.8.7 1.6.7 2.5zM306.6 19.4c0 2.2-.8 4-2.4 5.3-1.6 1.3-3.8 1.9-6.7 1.9-2.6 0-5-.5-7-1.5v-4.9c1.7.7 3.1 1.3 4.2 1.6 1.2.3 2.2.5 3.2.5 1.1 0 2-.2 2.6-.7s.9-1.1.9-2c0-.5-.1-.9-.4-1.3-.3-.4-.7-.7-1.2-1.1-.5-.3-1.6-.9-3.2-1.7-1.5-.7-2.6-1.4-3.4-2-.8-.7-1.4-1.4-1.8-2.3-.4-.9-.7-1.9-.7-3 0-2.2.7-3.9 2.2-5.1 1.5-1.2 3.5-1.9 6.1-1.9 1.3 0 2.5.2 3.7.5 1.2.3 2.4.7 3.7 1.3l-1.6 4c-1.3-.5-2.4-.9-3.3-1.1-.9-.2-1.7-.3-2.5-.3-1 0-1.7.2-2.3.7-.5.5-.8 1.1-.8 1.8 0 .5.1.9.3 1.2.2.3.6.7 1 1 .5.3 1.6.9 3.3 1.7 2.3 1.1 3.9 2.2 4.7 3.3 1 1.1 1.4 2.5 1.4 4.1zM319.2 26.6c-3 0-5.4-.8-7.1-2.5-1.7-1.7-2.6-4-2.6-7.1 0-3.2.8-5.6 2.4-7.3s3.8-2.6 6.6-2.6c2.7 0 4.7.8 6.2 2.3s2.2 3.6 2.2 6.3v2.5h-12.2c.1 1.5.5 2.6 1.3 3.4.8.8 1.9 1.2 3.4 1.2 1.1 0 2.2-.1 3.2-.4 1-.2 2.1-.6 3.2-1.1v4c-.9.5-1.9.8-2.9 1s-2.2.3-3.7.3zm-.7-15.9c-1.1 0-1.9.3-2.6 1s-1 1.7-1.1 2.9h7.2c0-1.3-.4-2.3-1-2.9-.6-.7-1.4-1-2.5-1zM339 22.5c.9 0 2-.2 3.2-.6v3.8c-1.3.6-2.9.9-4.7.9-2.1 0-3.6-.5-4.5-1.6-.9-1-1.4-2.6-1.4-4.7v-9.1h-2.5V9.1l2.8-1.7 1.5-4h3.3v4h5.3v3.9h-5.3v9.1c0 .7.2 1.3.6 1.6.5.3 1 .5 1.7.5zM359.4 26.2l-.7-2.4h-.3c-.6.9-1.3 1.6-2.3 2-1 .5-2.2.7-3.5.7-2.2 0-3.9-.6-5-1.8-1.1-1.2-1.7-2.9-1.7-5.1V7.4h5.1v11c0 1.4.2 2.4.7 3.1.5.7 1.3 1 2.3 1 1.4 0 2.5-.5 3.1-1.4.6-1 1-2.6 1-4.8V7.4h5.1v18.9h-3.8zM379.1 26.6c-2.2 0-4-.8-5.2-2.4h-.3c.2 1.6.3 2.5.3 2.7v7.6h-5.1V7.4h4.2l.7 2.4h.2c1.2-1.9 3-2.8 5.3-2.8 2.2 0 4 .9 5.2 2.6 1.3 1.7 1.9 4.1 1.9 7.2 0 2-.3 3.8-.9 5.2-.6 1.5-1.4 2.6-2.5 3.4-1 .8-2.3 1.2-3.8 1.2zm-1.5-15.5c-1.3 0-2.2.4-2.8 1.2-.6.8-.9 2.1-.9 3.9v.6c0 2 .3 3.5.9 4.4s1.6 1.3 2.9 1.3c2.3 0 3.5-1.9 3.5-5.7 0-1.9-.3-3.2-.9-4.2-.6-1-1.5-1.5-2.7-1.5z"/><g><path class="st0" d="M278.3 48.6c.8 0 1.5.3 2 1s.7 1.5.7 2.7c0 1.2-.2 2.1-.7 2.7-.5.6-1.2 1-2 1s-1.5-.3-2-.9h-.1l-.3.8h-1.5V46h1.9v2.3c0 .3 0 .8-.1 1.4h.1c.5-.7 1.2-1.1 2-1.1zm-.6 1.6c-.5 0-.8.1-1 .4-.2.3-.3.8-.3 1.5v.2c0 .8.1 1.3.3 1.6.2.3.6.5 1.1.5.4 0 .7-.2.9-.5.2-.4.4-.9.4-1.6s-.1-1.2-.4-1.6c-.2-.4-.6-.5-1-.5zM281.6 48.7h2.1l1.3 4c.1.3.2.8.2 1.2 0-.4.1-.8.3-1.2l1.3-4h2.1l-3 8c-.3.7-.7 1.3-1.2 1.7-.5.4-1.1.6-1.8.6-.3 0-.7 0-1-.1v-1.5c.2.1.5.1.8.1.3 0 .6-.1.9-.3.3-.2.5-.5.6-.9l.1-.3-2.7-7.3zM292.6 58.6c-.4 0-.8 0-1.2-.1v-1.6c.3.1.6.1.9.1.4 0 .7-.1.9-.4.2-.3.3-.7.3-1.3v-8.7h2v8.7c0 1.1-.2 1.9-.7 2.5s-1.3.8-2.2.8zM304.3 49.5c0 1-.3 1.8-.9 2.3-.6.5-1.5.8-2.7.8h-.8v3.3h-2v-9.3h3c1.1 0 2 .2 2.6.7.5.5.8 1.2.8 2.2zm-4.5 1.4h.6c.6 0 1.1-.1 1.4-.4.3-.2.5-.6.5-1 0-.5-.1-.8-.4-1-.3-.2-.6-.3-1.2-.3h-.9v2.7zM312.4 49.5c0 1-.3 1.8-.9 2.3-.6.5-1.5.8-2.7.8h-.8v3.3h-2v-9.3h3c1.1 0 2 .2 2.6.7.5.5.8 1.2.8 2.2zm-4.4 1.4h.6c.6 0 1.1-.1 1.4-.4.3-.2.5-.6.5-1 0-.5-.1-.8-.4-1-.3-.2-.6-.3-1.2-.3h-.9v2.7zM316.3 56c-.8 0-1.5-.3-2-1-.5-.6-.7-1.5-.7-2.7 0-1.2.2-2.1.7-2.7.5-.6 1.2-1 2-1 .9 0 1.6.3 2 1h.1c-.1-.5-.1-1-.1-1.4V46h1.9v9.9h-1.5l-.4-.9h-.1c-.4.6-1 1-1.9 1zm.6-1.6c.5 0 .9-.1 1.1-.4.2-.3.4-.8.4-1.5v-.2c0-.8-.1-1.3-.4-1.6-.2-.3-.6-.5-1.1-.5-.4 0-.8.2-1 .5-.2.4-.4.9-.4 1.6s.1 1.2.4 1.6c.3.4.6.5 1 .5zM325.5 56c-1.1 0-2-.3-2.7-.9s-1-1.5-1-2.7c0-1.2.3-2.1.9-2.8.6-.6 1.4-1 2.5-1 1 0 1.8.3 2.3.9s.8 1.4.8 2.4v.9h-4.6c0 .6.2 1 .5 1.3s.7.5 1.3.5c.4 0 .8 0 1.2-.1s.8-.2 1.2-.4v1.5c-.3.2-.7.3-1.1.4-.3-.1-.8 0-1.3 0zm-.3-6c-.4 0-.7.1-1 .4-.2.3-.4.6-.4 1.1h2.7c0-.5-.1-.8-.4-1.1-.2-.3-.5-.4-.9-.4zM334.9 53.7c0 .7-.3 1.3-.8 1.7-.5.4-1.3.6-2.3.6-.5 0-1 0-1.3-.1-.4-.1-.7-.2-1-.3V54c.4.2.8.3 1.2.4.5.1.8.2 1.2.2.7 0 1.1-.2 1.1-.6 0-.2 0-.3-.1-.4-.1-.1-.3-.2-.5-.3-.2-.1-.5-.3-.9-.4-.5-.2-.9-.4-1.2-.6-.3-.2-.4-.4-.6-.7-.1-.3-.2-.6-.2-.9 0-.6.2-1.1.7-1.5.5-.3 1.2-.5 2.1-.5.9 0 1.7.2 2.5.6l-.6 1.4c-.4-.2-.7-.3-1-.4s-.6-.1-.9-.1c-.6 0-.9.2-.9.5 0 .2.1.3.3.5l1.2.6c.6.2 1 .4 1.2.6s.4.4.6.7.2.3.2.6zM336.3 46.9c0-.6.4-.9 1.1-.9s1.1.3 1.1.9c0 .3-.1.5-.3.7-.2.2-.4.3-.8.3-.7 0-1.1-.4-1.1-1zm2 8.9h-1.9v-7.1h1.9v7.1zM346.5 48.7v1l-1.1.3c.2.3.3.7.3 1.1 0 .8-.3 1.4-.8 1.8-.5.4-1.3.6-2.2.6h-.6c-.2.2-.3.3-.3.5 0 .3.4.4 1.1.4h1.2c.8 0 1.4.2 1.8.5.4.3.6.8.6 1.5 0 .8-.3 1.5-1 1.9-.7.5-1.7.7-3 .7-1 0-1.7-.2-2.3-.5-.5-.3-.8-.8-.8-1.5 0-.4.1-.8.4-1.1s.7-.5 1.2-.6c-.2-.1-.4-.2-.5-.4-.1-.2-.2-.4-.2-.6 0-.3.1-.5.2-.7.2-.2.4-.4.7-.5-.4-.2-.7-.4-.9-.8-.2-.4-.3-.8-.3-1.3 0-.8.3-1.4.8-1.8s1.2-.6 2.2-.6c.2 0 .4 0 .7.1.3 0 .4.1.5.1h2.3zm-5.4 8.1c0 .3.1.5.4.6.3.2.6.2 1.1.2.7 0 1.2-.1 1.6-.3s.6-.5.6-.8c0-.3-.1-.5-.3-.6s-.6-.2-1.1-.2h-1c-.4 0-.7.1-.9.3-.3.4-.4.6-.4.8zm.7-5.7c0 .4.1.7.3.9.2.2.4.3.8.3s.6-.1.8-.3.3-.5.3-.9c0-.9-.4-1.3-1.1-1.3-.8 0-1.1.4-1.1 1.3zM354.3 55.8h-1.9v-4.1c0-.5-.1-.9-.3-1.2-.2-.3-.5-.4-.9-.4-.5 0-.9.2-1.2.5-.2.4-.4 1-.4 1.8v3.3h-1.9v-7.1h1.5l.3.9h.1c.2-.3.5-.6.9-.8.4-.2.8-.3 1.3-.3.8 0 1.5.2 1.9.7.4.4.6 1.1.6 1.9v4.8zM361.2 53.7c0 .7-.3 1.3-.8 1.7-.5.4-1.3.6-2.3.6-.5 0-1 0-1.3-.1-.4-.1-.7-.2-1-.3V54c.4.2.8.3 1.2.4.5.1.8.2 1.2.2.7 0 1.1-.2 1.1-.6 0-.2 0-.3-.1-.4-.1-.1-.3-.2-.5-.3-.2-.1-.5-.3-.9-.4-.5-.2-.9-.4-1.2-.6-.3-.2-.4-.4-.6-.7-.1-.3-.2-.6-.2-.9 0-.6.2-1.1.7-1.5.5-.3 1.2-.5 2.1-.5.9 0 1.7.2 2.5.6l-.6 1.4c-.4-.2-.7-.3-1-.4s-.6-.1-.9-.1c-.6 0-.9.2-.9.5 0 .2.1.3.3.5l1.2.6c.6.2 1 .4 1.2.6s.4.4.6.7.2.3.2.6zM366.2 55.8v-9.3h2v7.7h3.8v1.6h-5.8zM376.4 54.4c.3 0 .7-.1 1.2-.2v1.4c-.5.2-1.1.3-1.8.3-.8 0-1.3-.2-1.7-.6-.4-.4-.5-1-.5-1.8v-3.4h-.9v-.8l1.1-.6.6-1.5h1.2v1.5h2v1.5h-2v3.4c0 .3.1.5.2.6.2.2.4.2.6.2zM381.3 56c-.8 0-1.5-.3-2-1-.5-.6-.7-1.5-.7-2.7 0-1.2.2-2.1.7-2.7.5-.6 1.2-1 2-1 .9 0 1.6.3 2 1h.1c-.1-.5-.1-1-.1-1.4V46h1.9v9.9h-1.5l-.4-.9h-.1c-.3.6-1 1-1.9 1zm.7-1.6c.5 0 .9-.1 1.1-.4.2-.3.4-.8.4-1.5v-.2c0-.8-.1-1.3-.4-1.6-.2-.3-.6-.5-1.1-.5-.4 0-.8.2-1 .5-.2.4-.4.9-.4 1.6s.1 1.2.4 1.6c.2.4.5.5 1 .5z"/></g></svg>
