<svg xmlns="http://www.w3.org/2000/svg" viewBox="0 0 26 20">
  <title></title><desc></desc>
  <path d="M2.999,4.08 C3.03012356,3.77027286 2.91117466,3.46435116 2.679,3.257 L0.32,0.423 L0.32,0 L7.652,0 L13.317,12.382 L18.299,0 L25.286,0 L25.286,0.423 L23.268,2.353 C23.0949663,2.48520391 23.0091638,2.70221099 23.045,2.917 L23.045,17.085 C23.0092307,17.30007 23.0949834,17.5173358 23.268,17.65 L25.24,19.578 L25.24,20.002 L15.323,20.002 L15.323,19.578 L17.366,17.602 C17.567,17.403 17.567,17.345 17.567,17.038 L17.567,5.585 L11.889,19.955 L11.121,19.955 L4.51,5.585 L4.51,15.216 C4.455,15.62 4.59,16.027 4.876,16.321 L7.532,19.531 L7.532,19.955 L0,19.955 L0,19.531 L2.656,16.321 C2.941,16.027 3.068,15.617 2.999,15.216 L2.999,4.08 Z"/>
</svg>
