<svg xmlns="http://www.w3.org/2000/svg" viewBox="0 0 21 17">
  <title></title><desc></desc>
  <path class="icon-twitter" fill-rule="evenodd" d="M20.782 2.118a8.569 8.569 0 0 1-2.449.67A4.27 4.27 0 0 0 20.21.437a8.574 8.574 0 0 1-2.708 1.03A4.267 4.267 0 0 0 14.389.126a4.256 4.256 0 0 0-4.154 5.215A12.117 12.117 0 0 1 1.447.904a4.24 4.24 0 0 0 1.32 5.67 4.26 4.26 0 0 1-1.932-.53v.054a4.254 4.254 0 0 0 3.419 4.164 4.21 4.21 0 0 1-1.924.074 4.263 4.263 0 0 0 3.981 2.95 8.563 8.563 0 0 1-5.294 1.817A8.83 8.83 0 0 1 0 15.045a12.104 12.104 0 0 0 6.536 1.908c7.842 0 12.131-6.474 12.131-12.086 0-.185-.004-.368-.013-.55a8.618 8.618 0 0 0 2.128-2.199"/>
</svg>