<svg xmlns="http://www.w3.org/2000/svg" viewBox="0 0 50 35"><title></title><desc></desc><g fill="none" fill-rule="evenodd"><path fill="#ffffff" d="M48.955 5.5a6.282 6.282 0 0 0-4.42-4.448C40.635 0 25 0 25 0S9.364 0 5.465 1.052A6.282 6.282 0 0 0 1.045 5.5C0 9.425 0 17.614 0 17.614s0 8.188 1.045 12.113a6.283 6.283 0 0 0 4.42 4.449C9.365 35.227 25 35.227 25 35.227s15.636 0 19.535-1.051a6.283 6.283 0 0 0 4.42-4.45C50 25.803 50 17.615 50 17.615S50 9.425 48.955 5.5"/><path fill="#2e2e2e" d="M19.886 25.048l13.069-7.434-13.069-7.435v14.869"/></g></svg>