<svg xmlns="http://www.w3.org/2000/svg" viewBox="0 0 22 22"><path class="icon-dibbble" fill-rule="evenodd" d="M15.846 18.578c-.088-.533-.564-3.128-1.725-6.315 2.864-.456 5.345.326 5.528.386a8.831 8.831 0 0 1-3.803 5.929m-4.956 1.509a8.856 8.856 0 0 1-5.653-2.026c.117.094.198.154.198.154s1.702-3.697 6.964-5.523a.437.437 0 0 1 .058-.018c1.249 3.233 1.766 5.939 1.895 6.713a8.843 8.843 0 0 1-3.462.7m-8.874-8.843c0-.093.004-.186.006-.278.159.002 4.543.102 9.11-1.26.254.495.498 1 .721 1.503a7.83 7.83 0 0 0-.35.105c-4.79 1.541-7.217 5.835-7.217 5.835l.003.004a8.788 8.788 0 0 1-2.273-5.909M7.102 3.25a52.97 52.97 0 0 1 3.295 5.095c-4.26 1.127-7.958 1.083-8.191 1.08A8.857 8.857 0 0 1 7.102 3.25m1.662-.589l-.003.003-.026.005.029-.008m7.985 1.95c-.022.034-1.286 1.95-4.634 3.202a45.06 45.06 0 0 0-3.316-5.158c.67-.163 1.37-.25 2.09-.25a8.85 8.85 0 0 1 5.86 2.206m3.012 6.547c-.13-.028-3.133-.671-6.183-.29a24.946 24.946 0 0 0-.782-1.74c3.507-1.422 4.93-3.472 4.945-3.498a8.799 8.799 0 0 1 2.02 5.528m1.307-1.995a10.125 10.125 0 0 0-.607-1.947 10.121 10.121 0 0 0-.957-1.758 10.473 10.473 0 0 0-2.806-2.796 10.415 10.415 0 0 0-1.765-.955 10.436 10.436 0 0 0-6.137-.603c-.666.136-1.324.34-1.953.603-.614.26-1.21.581-1.766.955-.548.37-1.065.795-1.537 1.265a10.401 10.401 0 0 0-2.225 3.29 10.334 10.334 0 0 0-.816 4.029c0 .702.07 1.404.21 2.085a10.2 10.2 0 0 0 1.565 3.705 10.36 10.36 0 0 0 4.569 3.748c.63.265 1.287.467 1.953.604a10.494 10.494 0 0 0 4.184 0 10.345 10.345 0 0 0 3.718-1.558 10.342 10.342 0 0 0 2.806-2.794 10.18 10.18 0 0 0 .957-1.76 10.271 10.271 0 0 0 .607-6.113"/></svg>