<svg xmlns="http://www.w3.org/2000/svg" viewBox="0 0 22 21"><path d="M12.107 8.68v.044c-.019-.013-.008-.03 0-.044V6.79H7.653c.057 1.25 0 13.35 0 13.35h4.454v-7.456c0-.401.03-.796.146-1.082.324-.796 1.058-1.625 2.286-1.625 1.614 0 2.26 1.227 2.26 3.02v7.144h4.453v-7.655c0-4.102-2.2-6.01-5.13-6.01-2.363 0-3.422 1.293-4.015 2.204zM.733 20.141H5.19V6.79H.733zM2.99.35C1.467.35.47 1.348.47 2.659c0 1.28.966 2.307 2.46 2.307h.03c1.553 0 2.52-1.028 2.52-2.307-.028-1.311-.966-2.31-2.49-2.31" fill-rule="evenodd"/></svg>